<?xml version="1.0" encoding="utf-8"?>
<!DOCTYPE svg PUBLIC "-//W3C//DTD SVG 1.1//EN" "http://www.w3.org/Graphics/SVG/1.1/DTD/svg11.dtd">
<svg version="1.1" xmlns="http://www.w3.org/2000/svg" x="0" y="0" width="21" height="46" viewBox="0 0 21 46" xml:space="preserve">
    <defs>
        <linearGradient id="grad" x1="0%" y1="0%" x2="0%" y2="100%">
            <stop offset="0%" style="stop-color:rgb(30,141,0);stop-opacity:1" />
            <stop offset="100%" style="stop-color:rgb(3,93,0);stop-opacity:1" />
        </linearGradient>
    </defs>
    <polyline fill="url(#grad)" points="0,7 1,7 1,4 2,4 2,3 3,3 3,2 5,2 5,1 7,1 7,0 14,0 14,1 16,1 16,2 17,2 17,3 18,3 18,4 19,4 19,5 20,5 20,7 21,7 21,14 20,14 20,17 19,17 19,18 18,18 18,20 17,20 17,21 16,21 16,22 15,22 15,23 14,23 14,24 13,24 13,26 12,26 12,28 11,28 11,34 6,34 6,30 7,30 7,26 8,26 8,24 9,24 9,22 10,22 10,21 11,21 11,19 12,19 12,18 13,18 13,17 14,17 14,16 15,16 15,14 16,14 16,8 15,8 15,6 14,6 14,5 7,5 7,6 6,6 6,7 5,7 5,11 4,11 4,12 5,12 5,13 0,13 0,7 5,39 12,39 12,46 5,46 5,39" />
</svg>